<svg width="24" height="23" viewBox="0 0 24 23" fill="none" xmlns="http://www.w3.org/2000/svg">
<path fill-rule="evenodd" clip-rule="evenodd" d="M4.22181 3.93671C-0.091538 7.95882 -0.091538 14.4206 4.22181 18.4427C8.53516 22.4648 15.4648 22.4648 19.7782 18.4427C24.0915 14.4206 24.0915 7.95882 19.7782 3.93671C15.4648 -0.0854033 8.53516 -0.0854039 4.22181 3.93671ZM8.18161 8.55225C8.18161 9.07974 8.60587 9.47535 9.17156 9.47535H12.4242L8.46445 13.1678C8.04019 13.5634 8.04019 14.0909 8.46445 14.4865C8.88872 14.8821 9.4544 14.8821 9.87867 14.4865L13.8385 10.7941L13.8385 13.8271C13.8385 14.3546 14.2627 14.7503 14.8284 14.7503C15.3941 14.7503 15.8184 14.3546 15.8184 13.8271L15.8184 8.55225C15.8184 8.42037 15.8184 8.2885 15.7477 8.22257C15.7477 8.09069 15.6062 7.95882 15.5355 7.89288C15.4648 7.82695 15.3234 7.69508 15.182 7.69508C15.1113 7.62914 14.9698 7.62914 14.8284 7.62914H9.17156C8.60587 7.62914 8.18161 8.02476 8.18161 8.55225ZM18.3639 5.25543C14.8284 1.95862 9.17156 1.95862 5.63603 5.25543C2.10049 8.55225 2.10049 13.8271 5.63603 17.124C9.17156 20.4208 14.8284 20.4208 18.3639 17.124C21.8995 13.8271 21.8995 8.55225 18.3639 5.25543Z" fill="black"/>
<mask id="mask0_2012_2096" style="mask-type:alpha" maskUnits="userSpaceOnUse" x="0" y="0" width="24" height="22">
<path fill-rule="evenodd" clip-rule="evenodd" d="M4.22181 3.93671C-0.091538 7.95882 -0.091538 14.4206 4.22181 18.4427C8.53516 22.4648 15.4648 22.4648 19.7782 18.4427C24.0915 14.4206 24.0915 7.95882 19.7782 3.93671C15.4648 -0.0854033 8.53516 -0.0854039 4.22181 3.93671ZM8.18161 8.55225C8.18161 9.07974 8.60587 9.47535 9.17156 9.47535H12.4242L8.46445 13.1678C8.04019 13.5634 8.04019 14.0909 8.46445 14.4865C8.88872 14.8821 9.4544 14.8821 9.87867 14.4865L13.8385 10.7941L13.8385 13.8271C13.8385 14.3546 14.2627 14.7503 14.8284 14.7503C15.3941 14.7503 15.8184 14.3546 15.8184 13.8271L15.8184 8.55225C15.8184 8.42037 15.8184 8.2885 15.7477 8.22257C15.7477 8.09069 15.6062 7.95882 15.5355 7.89288C15.4648 7.82695 15.3234 7.69508 15.182 7.69508C15.1113 7.62914 14.9698 7.62914 14.8284 7.62914H9.17156C8.60587 7.62914 8.18161 8.02476 8.18161 8.55225ZM18.3639 5.25543C14.8284 1.95862 9.17156 1.95862 5.63603 5.25543C2.10049 8.55225 2.10049 13.8271 5.63603 17.124C9.17156 20.4208 14.8284 20.4208 18.3639 17.124C21.8995 13.8271 21.8995 8.55225 18.3639 5.25543Z" fill="white"/>
</mask>
<g mask="url(#mask0_2012_2096)">
<rect width="24" height="22.3795" transform="matrix(-1 0 0 1 24 0)" fill="#B5BBC9"/>
</g>
</svg>
