<svg width="44" height="44" viewBox="0 0 44 44" fill="none" xmlns="http://www.w3.org/2000/svg">
<path d="M29.0711 29.071C28.5407 29.6013 27.8336 29.6013 27.3033 29.071L22 23.7677L16.6967 29.071C16.1664 29.6013 15.4593 29.6013 14.9289 29.071C14.3986 28.5407 14.3986 27.8336 14.9289 27.3032L20.2322 21.9999L14.9289 16.6966C14.3986 16.1663 14.3986 15.4592 14.9289 14.9289C15.4593 14.3985 16.1664 14.3985 16.6967 14.9289L22 20.2322L27.3033 14.9289C27.8336 14.3985 28.5407 14.3985 29.0711 14.9289C29.6014 15.4592 29.6014 16.1663 29.0711 16.6966L23.7678 21.9999L29.0711 27.3032C29.6014 27.8336 29.6014 28.5407 29.0711 29.071Z" fill="black"/>
<mask id="mask0_2003_16203" style="mask-type:alpha" maskUnits="userSpaceOnUse" x="14" y="14" width="16" height="16">
<path d="M29.0711 29.071C28.5407 29.6013 27.8336 29.6013 27.3033 29.071L22 23.7677L16.6967 29.071C16.1664 29.6013 15.4593 29.6013 14.9289 29.071C14.3986 28.5407 14.3986 27.8336 14.9289 27.3032L20.2322 21.9999L14.9289 16.6966C14.3986 16.1663 14.3986 15.4592 14.9289 14.9289C15.4593 14.3985 16.1664 14.3985 16.6967 14.9289L22 20.2322L27.3033 14.9289C27.8336 14.3985 28.5407 14.3985 29.0711 14.9289C29.6014 15.4592 29.6014 16.1663 29.0711 16.6966L23.7678 21.9999L29.0711 27.3032C29.6014 27.8336 29.6014 28.5407 29.0711 29.071Z" fill="white"/>
</mask>
<g mask="url(#mask0_2003_16203)">
<rect x="22" y="0.786743" width="30" height="30" transform="rotate(45 22 0.786743)" fill="white"/>
</g>
</svg>
