<svg width="34" height="34" viewBox="0 0 34 34" fill="none" xmlns="http://www.w3.org/2000/svg">
<path fill-rule="evenodd" clip-rule="evenodd" d="M6 17C6 10.9 10.9 6 17 6C23.1 6 28 10.9 28 17C28 23.1 23.1 28 17 28C10.9 28 6 23.1 6 17ZM12.3 16.3C12.7 15.9 13.3 15.9 13.7 16.3L16 18.6V13C16 12.4 16.4 12 17 12C17.6 12 18 12.4 18 13V18.6L20.3 16.3C20.7 15.9 21.3 15.9 21.7 16.3C22.1 16.7 22.1 17.3 21.7 17.7L17.7 21.7C17.6 21.8 17.5 21.9 17.4 21.9C17.3 22 17.1 22 17 22C16.9 22 16.7 22 16.6 21.9C16.5 21.9 16.4 21.8 16.3 21.7L12.3 17.7C11.9 17.3 11.9 16.7 12.3 16.3ZM17 26C12 26 8 22 8 17C8 12 12 8 17 8C22 8 26 12 26 17C26 22 22 26 17 26Z" fill="black"/>
<mask id="mask0_2003_15217" style="mask-type:alpha" maskUnits="userSpaceOnUse" x="6" y="6" width="22" height="22">
<path fill-rule="evenodd" clip-rule="evenodd" d="M6 17C6 10.9 10.9 6 17 6C23.1 6 28 10.9 28 17C28 23.1 23.1 28 17 28C10.9 28 6 23.1 6 17ZM12.3 16.3C12.7 15.9 13.3 15.9 13.7 16.3L16 18.6V13C16 12.4 16.4 12 17 12C17.6 12 18 12.4 18 13V18.6L20.3 16.3C20.7 15.9 21.3 15.9 21.7 16.3C22.1 16.7 22.1 17.3 21.7 17.7L17.7 21.7C17.6 21.8 17.5 21.9 17.4 21.9C17.3 22 17.1 22 17 22C16.9 22 16.7 22 16.6 21.9C16.5 21.9 16.4 21.8 16.3 21.7L12.3 17.7C11.9 17.3 11.9 16.7 12.3 16.3ZM17 26C12 26 8 22 8 17C8 12 12 8 17 8C22 8 26 12 26 17C26 22 22 26 17 26Z" fill="white"/>
</mask>
<g mask="url(#mask0_2003_15217)">
<rect x="17" y="33.9706" width="24" height="24" transform="rotate(-135 17 33.9706)" fill="#DF5060"/>
</g>
</svg>
