<svg width="34" height="34" viewBox="0 0 34 34" fill="none" xmlns="http://www.w3.org/2000/svg">
<path fill-rule="evenodd" clip-rule="evenodd" d="M6 17C6 23.1 10.9 28 17 28C23.1 28 28 23.1 28 17C28 10.9 23.1 6 17 6C10.9 6 6 10.9 6 17ZM26 17C26 22 22 26 17 26C12 26 8 22 8 17C8 12 12 8 17 8C22 8 26 12 26 17ZM16.7314 12.0627C16.6828 12.0828 16.6414 12.1 16.6 12.1C16.5 12.1 16.4 12.2 16.3 12.3L12.3 16.3C11.9 16.7 11.9 17.3 12.3 17.7C12.7 18.1 13.3 18.1 13.7 17.7L16 15.4V21C16 21.6 16.4 22 17 22C17.6 22 18 21.6 18 21V15.4L20.3 17.7C20.7 18.1 21.3 18.1 21.7 17.7C21.9 17.5 22 17.3 22 17C22 16.7 21.9 16.5 21.7 16.3L17.7 12.3C17.6 12.2 17.5 12.1 17.4 12.1C17.3 12 17.1 12 17 12C16.8828 12 16.8 12.0343 16.7314 12.0627Z" fill="black"/>
<mask id="mask0_2003_15200" style="mask-type:alpha" maskUnits="userSpaceOnUse" x="6" y="6" width="22" height="22">
<path fill-rule="evenodd" clip-rule="evenodd" d="M6 17C6 23.1 10.9 28 17 28C23.1 28 28 23.1 28 17C28 10.9 23.1 6 17 6C10.9 6 6 10.9 6 17ZM26 17C26 22 22 26 17 26C12 26 8 22 8 17C8 12 12 8 17 8C22 8 26 12 26 17ZM16.7314 12.0627C16.6828 12.0828 16.6414 12.1 16.6 12.1C16.5 12.1 16.4 12.2 16.3 12.3L12.3 16.3C11.9 16.7 11.9 17.3 12.3 17.7C12.7 18.1 13.3 18.1 13.7 17.7L16 15.4V21C16 21.6 16.4 22 17 22C17.6 22 18 21.6 18 21V15.4L20.3 17.7C20.7 18.1 21.3 18.1 21.7 17.7C21.9 17.5 22 17.3 22 17C22 16.7 21.9 16.5 21.7 16.3L17.7 12.3C17.6 12.2 17.5 12.1 17.4 12.1C17.3 12 17.1 12 17 12C16.8828 12 16.8 12.0343 16.7314 12.0627Z" fill="white"/>
</mask>
<g mask="url(#mask0_2003_15200)">
<rect x="17" y="33.9706" width="24" height="24" transform="rotate(-135 17 33.9706)" fill="#75BF72"/>
</g>
</svg>
