<svg width="30" height="31" viewBox="0 0 30 31" fill="none" xmlns="http://www.w3.org/2000/svg">
<path d="M25 15.9714C25 16.7214 24.5 17.2214 23.75 17.2214H16.25V24.7214C16.25 25.4714 15.75 25.9714 15 25.9714C14.25 25.9714 13.75 25.4714 13.75 24.7214V17.2214H6.25C5.5 17.2214 5 16.7214 5 15.9714C5 15.2214 5.5 14.7214 6.25 14.7214H13.75V7.22144C13.75 6.47144 14.25 5.97144 15 5.97144C15.75 5.97144 16.25 6.47144 16.25 7.22144V14.7214H23.75C24.5 14.7214 25 15.2214 25 15.9714Z" fill="black"/>
<mask id="mask0_2063_2085" style="mask-type:alpha" maskUnits="userSpaceOnUse" x="5" y="5" width="20" height="21">
<path d="M25 15.9714C25 16.7214 24.5 17.2214 23.75 17.2214H16.25V24.7214C16.25 25.4714 15.75 25.9714 15 25.9714C14.25 25.9714 13.75 25.4714 13.75 24.7214V17.2214H6.25C5.5 17.2214 5 16.7214 5 15.9714C5 15.2214 5.5 14.7214 6.25 14.7214H13.75V7.22144C13.75 6.47144 14.25 5.97144 15 5.97144C15.75 5.97144 16.25 6.47144 16.25 7.22144V14.7214H23.75C24.5 14.7214 25 15.2214 25 15.9714Z" fill="white"/>
</mask>
<g mask="url(#mask0_2063_2085)">
<rect y="0.971436" width="30" height="30" fill="white"/>
</g>
</svg>
