<svg width="23" height="22" viewBox="0 0 23 22" fill="none" xmlns="http://www.w3.org/2000/svg">
<path fill-rule="evenodd" clip-rule="evenodd" d="M5.08329 14.6667C5.63329 14.6667 5.99996 14.3001 5.99996 13.7501C5.99996 13.2001 5.63329 12.8334 5.08329 12.8334H4.16663C3.61663 12.8334 3.24996 12.4667 3.24996 11.9167V3.66675C3.24996 3.11675 3.61663 2.75008 4.16663 2.75008H12.4166C12.9666 2.75008 13.3333 3.11675 13.3333 3.66675V4.58341C13.3333 5.13341 13.7 5.50008 14.25 5.50008C14.8 5.50008 15.1666 5.13341 15.1666 4.58341V3.66675C15.1666 2.10841 13.975 0.916748 12.4166 0.916748H4.16663C2.60829 0.916748 1.41663 2.10841 1.41663 3.66675V11.9167C1.41663 13.4751 2.60829 14.6667 4.16663 14.6667H5.08329ZM18.8333 7.33342H10.5833C9.02496 7.33342 7.83329 8.52508 7.83329 10.0834V18.3334C7.83329 19.8917 9.02496 21.0834 10.5833 21.0834H18.8333C20.3916 21.0834 21.5833 19.8917 21.5833 18.3334V10.0834C21.5833 8.52508 20.3916 7.33342 18.8333 7.33342ZM19.75 18.3334C19.75 18.8834 19.3833 19.2501 18.8333 19.2501H10.5833C10.0333 19.2501 9.66663 18.8834 9.66663 18.3334V10.0834C9.66663 9.53341 10.0333 9.16675 10.5833 9.16675H18.8333C19.3833 9.16675 19.75 9.53341 19.75 10.0834V18.3334Z" fill="black"/>
<mask id="mask0_2104_1319" style="mask-type:alpha" maskUnits="userSpaceOnUse" x="1" y="0" width="21" height="22">
<path fill-rule="evenodd" clip-rule="evenodd" d="M5.08329 14.6667C5.63329 14.6667 5.99996 14.3001 5.99996 13.7501C5.99996 13.2001 5.63329 12.8334 5.08329 12.8334H4.16663C3.61663 12.8334 3.24996 12.4667 3.24996 11.9167V3.66675C3.24996 3.11675 3.61663 2.75008 4.16663 2.75008H12.4166C12.9666 2.75008 13.3333 3.11675 13.3333 3.66675V4.58341C13.3333 5.13341 13.7 5.50008 14.25 5.50008C14.8 5.50008 15.1666 5.13341 15.1666 4.58341V3.66675C15.1666 2.10841 13.975 0.916748 12.4166 0.916748H4.16663C2.60829 0.916748 1.41663 2.10841 1.41663 3.66675V11.9167C1.41663 13.4751 2.60829 14.6667 4.16663 14.6667H5.08329ZM18.8333 7.33342H10.5833C9.02496 7.33342 7.83329 8.52508 7.83329 10.0834V18.3334C7.83329 19.8917 9.02496 21.0834 10.5833 21.0834H18.8333C20.3916 21.0834 21.5833 19.8917 21.5833 18.3334V10.0834C21.5833 8.52508 20.3916 7.33342 18.8333 7.33342ZM19.75 18.3334C19.75 18.8834 19.3833 19.2501 18.8333 19.2501H10.5833C10.0333 19.2501 9.66663 18.8834 9.66663 18.3334V10.0834C9.66663 9.53341 10.0333 9.16675 10.5833 9.16675H18.8333C19.3833 9.16675 19.75 9.53341 19.75 10.0834V18.3334Z" fill="white"/>
</mask>
<g mask="url(#mask0_2104_1319)">
<rect x="0.5" width="22" height="22" fill="#347AF0"/>
</g>
</svg>
