<svg width="22" height="22" viewBox="0 0 22 22" fill="none" xmlns="http://www.w3.org/2000/svg">
<path fill-rule="evenodd" clip-rule="evenodd" d="M10.0833 4.01402L7.975 6.12475C7.60833 6.49183 7.05833 6.49183 6.69167 6.12475C6.325 5.75767 6.325 5.20704 6.69167 4.83996L10.3583 1.16912C10.4042 1.12323 10.45 1.10029 10.4958 1.07735C10.5417 1.0544 10.5875 1.03146 10.6333 0.985576C10.9083 0.893805 11.1833 0.893805 11.3667 0.985576C11.4583 0.985576 11.55 1.07735 11.6417 1.16912L15.3083 4.83996C15.675 5.20704 15.675 5.75767 15.3083 6.12475C15.125 6.30829 14.9417 6.40006 14.6667 6.40006C14.3917 6.40006 14.2083 6.30829 14.025 6.12475L11.9167 4.01402V13.7417C11.9167 14.2924 11.55 14.6594 11 14.6594C10.45 14.6594 10.0833 14.2924 10.0833 13.7417V4.01402ZM16.5 21.0834C18.0583 21.0834 19.25 19.8904 19.25 18.3303V10.9886C19.25 10.438 18.8833 10.0709 18.3333 10.0709C17.7833 10.0709 17.4167 10.438 17.4167 10.9886V18.3303C17.4167 18.8809 17.05 19.248 16.5 19.248H5.5C4.95 19.248 4.58333 18.8809 4.58333 18.3303V10.9886C4.58333 10.438 4.21667 10.0709 3.66667 10.0709C3.11667 10.0709 2.75 10.438 2.75 10.9886V18.3303C2.75 19.8904 3.94167 21.0834 5.5 21.0834H16.5Z" fill="black"/>
<mask id="mask0_2104_1381" style="mask-type:alpha" maskUnits="userSpaceOnUse" x="2" y="0" width="18" height="22">
<path fill-rule="evenodd" clip-rule="evenodd" d="M10.0833 4.01402L7.975 6.12475C7.60833 6.49183 7.05833 6.49183 6.69167 6.12475C6.325 5.75767 6.325 5.20704 6.69167 4.83996L10.3583 1.16912C10.4042 1.12323 10.45 1.10029 10.4958 1.07735C10.5417 1.0544 10.5875 1.03146 10.6333 0.985576C10.9083 0.893805 11.1833 0.893805 11.3667 0.985576C11.4583 0.985576 11.55 1.07735 11.6417 1.16912L15.3083 4.83996C15.675 5.20704 15.675 5.75767 15.3083 6.12475C15.125 6.30829 14.9417 6.40006 14.6667 6.40006C14.3917 6.40006 14.2083 6.30829 14.025 6.12475L11.9167 4.01402V13.7417C11.9167 14.2924 11.55 14.6594 11 14.6594C10.45 14.6594 10.0833 14.2924 10.0833 13.7417V4.01402ZM16.5 21.0834C18.0583 21.0834 19.25 19.8904 19.25 18.3303V10.9886C19.25 10.438 18.8833 10.0709 18.3333 10.0709C17.7833 10.0709 17.4167 10.438 17.4167 10.9886V18.3303C17.4167 18.8809 17.05 19.248 16.5 19.248H5.5C4.95 19.248 4.58333 18.8809 4.58333 18.3303V10.9886C4.58333 10.438 4.21667 10.0709 3.66667 10.0709C3.11667 10.0709 2.75 10.438 2.75 10.9886V18.3303C2.75 19.8904 3.94167 21.0834 5.5 21.0834H16.5Z" fill="white"/>
</mask>
<g mask="url(#mask0_2104_1381)">
<rect width="22" height="22" fill="#347AF0"/>
</g>
</svg>
